/* XPM */
static char *_c1e4b0dc87f4a6e9361bdfce19364derhnyV6qriuAAjbTq[] = {
/* columns rows colors chars-per-pixel */
"64 64 33 1 ",
"  c #D1D8DA",
". c #D4D9DE",
"X c #D2D8DB",
"o c #D0D7DA",
"O c #D6D6DE",
"+ c None",
"@ c #D1D6DB",
"# c #D0D6DB",
"$ c #DDDDDD",
"% c #D0D6DA",
"& c #D0D7DA",
"* c #D1D7DC",
"= c #D1D7DB",
"- c #D2D7DB",
"; c #D0D7DB",
": c black",
"> c #D9DEE1",
", c #EDF0F1",
"< c #E5E8EA",
"1 c #D6DCDF",
"2 c gray99",
"3 c #E2E6E8",
"4 c #DFE3E6",
"5 c #EAEDEF",
"6 c #F9FAFA",
"7 c #F6F7F8",
"8 c #F0F2F3",
"9 c #D3D9DD",
"0 c #DCE1E4",
"q c #E8EBED",
"w c #F3F5F6",
"e c #D1D7DB",
"r c white",
/* pixels */
":::::::::::::::::::::::::::::$:::::::::::::::::::O------::::::::",
":&;;;;;;;;;;;;eeeeeeeeeeeeeeeeeeee%;@=====;;;%eeeeeeeeeee%;;;%&:",
":eeeeeeeeeeeeeeeeeeeeeeeeeeeeeeeeeeeeeeeeeeeeeeee100000eeeeeeee:",
":eewwwwwwwwwwwrrrrrrrrrrrrrrrrrrrr7w5qqqqqwww7rrrrrrrrrrwwwwwee:",
":eerrrrrrrrrrrrrrrrrrrrrrrrrrrrrrrrrrrrrrrrrrrrrrrrrrrrrrrrrree:",
".e9rrrrrrrrrrrrrrrrrrrrrrrrrrrrrrrrrrrrrrrrrrrrrrrrrrrrrrrrrree:",
"Xe0rrrrrrrrrrrrrrrrrrrrrrrrrrrrr205rrrrrrrrrrrrrrrrrrrrrrrrrree:",
"&eqrrrr,3rrrrrrrrrrrrrrrrrrrrrrrwe0rrrrrrrrrrrrrrrrrrrrrrrrrree:",
";ewrrr2ee7rrrrrrrrrrrrrrrrrrrrrrwe0rrrrrrrrrrrrrr<06rrrrrrrrree:",
";e8rrr8e9rrrrrrrrrrrrrrrrrrrrrrr7e0rrrrrrrrrrrrrr9ewrrrrrrrrree:",
"@e3rrrqe>rrrrrrrrrrrrrrrrrrrrrrrrw6rrrrrrrrrrrrrr0ewrrrrrrrrree:",
"-e0rrrwee6rrrrrrrrrrrrrrrrrrrrrrrrrrrrrrrrrrrrrrr0ewrrrrrrrrree:",
"-e0rrrr4ewrrrrrrrrrrrrrrrrrrrrrrrrrrrrrrrrrrr4,rreerrrrrrrrrree:",
"-e0rrrr6wrrrrrrrrrrrrrrrrrrrrrrrrrrrrrrrrrrr6e9rr9errrrrrrrrree:",
"-e0rrrrrrrrrrrrrrrrrrrrrrrrrrrrrrrrrrrrrrrrrr1e7r77rrrrrrrrrree:",
"-e0rrrrrrrrrrrrrrrrrq<rrrrrrrrrrrrrrrrrrrrrrr0ewrrrrrrrrrrrrree:",
"*e<rrrrrrrrrrrrrrrrr9e7rrrrrrrrrrrrrrrrrrrrrr0ewrrrrrrrrrrrrree:",
"*e4rrrrrrrrrrrrrrrrr0eqrrrrrrrrrrrrrrrrrrrrrr9e2rrrrrrrrrrrrweo:",
"-e0rrrrrrrrrrrrrrrrr>e5rrrrrrrrrrrrrrrrrrrrr20qrrrrrrrrrrrrr8e;:",
"Oeerrrrrrrrrrrrrrrr8e96rrrrrrrrrrrrrrrrrrrrrrrrrrrrrrrrrrrrrqe=:",
":+e7rrrrrrrrrrr607rqe0rrw0wrrrrrrrrrrrrrrrrrrrrrrrrrrrrrrrrr4e*:",
":#e5rrrrrrrrrrr5e3rqe0rrqeqrrrrrrrrrrrrrrrrrrrrrrrrrrrrrrrrr0e-:",
":=eqrrrrrrrrrrrwe0r8e0rrqeqrrrrrrrrrrrrrrrrrrrrrrrrrrrrrrrrr0e-:",
":=eqrrrrrrrrrrr8e<rweerrqeqrrrrrrrrrrrrrrrrrrrrrrrrrrrrrrrrr0e-:",
":=eqrrrrrrrrrrr1e8rr44rrqeqrrrrrrrrrrrrrrrrrrrrrrrrrrrrrrrrr3e*:",
":=eqrrrrrrrrrrreewrrrrrrqeqrrrrrrrrrrrrrrrrrrrrrrrrrrrrrrrrrqe=:",
":&eqrrrrrrrrrrr05rrrrrrrw08rrrrrrrrrrrrrrrrrrrrrrrrrrrrrrrrrqe=:",
":;ewrrrrrrrrrrrrrrrrrrrrrrrrrrrrrrrrrrrrrrrrrrrrrrrrrrrrrrrr5e&:",
":;ewrrrrrrrrrrrrrrrrrrrrrrrrrrrrrrrrrrrrrrrrrrrrrrrrrrrrrrrrwe;:",
":;ewrrrrrrrrrrrrrrrrrrrrrrrrrrrrrrrrrrrrrrrrrrrrrrrrrrrrrrrr6e+:",
":;ewrrrrrrrrrrrrrrrrrrrrrrrrrrrrrrrrrrrrrrrrrrrrrrrrrrrrrrrrreeO",
":eewrrrrrrrrrrrrrrrrrrrrrrrrrrrrrrrrrrrrrrrrrrrrrrrrrrrrrrrrr1e-",
"$ee2rrrrrrrrrrrrrrrrrrrrrrrrrrrrrrrrrrrrrrrrrrrrrrrrrrrrrrrrr0e=",
"*e9rrrrrrrrrrrrrrrrrrrrrrrrrrrrrrrrrrrrrrrrrrrrrrrrrrrrrrrrrr3e=",
"&e3rrrrrrrrrrrrrrrrrrrrrrrrrrrrrrrrrrrrrrrrrrrrrrrrrrrrrrrrrrqe=",
";e8rrrrrrrrrrrrrrrrrrrrrrrrrrrrrrrrrrrrrrrrr502rrrrrrrrrrrrrrqe=",
";ewrrrrrrrrrrrrrrrrrrrrrrrrrrrrrrrrrrrrrrrrr0ewrrrrrrrrrrrrrrqe=",
";ewrrrrrrrrrrrrrrrrrrrrrrrrrrrrrrrrrrrrrrrrr3e,rrrrrrq96rrrrr4e ",
"#e5rrrrrrrrrrrrrrrrrrrrrrrrrrrrrrrrrrrrrrrrrqeqrrrrrr3e5rrrrr0e-",
"=e3rrrrrrrrrrrrrrrrrrrrrrrrrrrrrrrrrrrrrrrrrqeqrrrrrrqeqrrrrr0e-",
"Xe>rrrrrrrrrrrrrrrrrrrrrrrrrrrrrrrrrrrrrrrrr<eqrr,e,r<eqrrrrree$",
"$eerrrrrrrrrrrrrrrrrrrrrrrrrrrrrrrrrrrrrrrrr4e,rrqeqr0eqrrrrree:",
":+e7rrrrrrrrrrrrrrrrrrrrrrrrrrrrrrrrrrrrrrrr6wrrrqeqr0e8rrrrree:",
":;ewrrrrrrrrrrrrrrrrrrrrrrrrrrrrrrrrrrrrrrrrrrrrrqeqrq06rrrrree:",
":;ewrrrrrrrwqrrrrrrrrrrrrrrrrrrrrrrrrrrrrrrrrrrrrqeqrrrrrrrrree:",
":;ewrrrrrrr0ewrrrrrrrrrrrrrrrrrrrrrrrrrrrrrrrrrrrqeqrrrrrrrrree:",
":;ewrrrrrrr0ewrrrrrrrrrrrrrrrrrrrrrrrrrrrrrrrrrrrw08rrrrrrrrree:",
":;ewrrrrrrr0ewrrrrrrrrrrrrrrrrrrrrrrrrrrrrrrrrrrrrrrrrrrrrrrree:",
":;ewrrrrqwr0ewrrrrrrrrrrrrrrrrrrrrrrrrrrrrrrrrrrrrrrrrrrrrrr7e%:",
":;e8rrrwe0r0ewrrr11rrrrrrrrrrrrrrrrrrrrrrrrrrrrrrrrrrrrrrrrrwe;:",
":@e<rrrwe0r4ewrrreerrrrrrrrrrrrrrrrrrrrrrrrrrrrrrrrrrrrrrrrrwe;:",
":-e0rrrwe0r6wrrrreerrrrrrrrrrrrrrrq96rrrrrrrrrrrrrrrrrrrrrrr8e#:",
":-e0rrrwe0rrrrrrreerrrrrrrrrrrrrrr3e5rrrrrrrrrrrrrrrrrrrrrrrqe=:",
":=e3rrrrq8rrrrrrr9errrrrrrrrrrrrrrqeqrrrrrrrrrrrrrrrrrrrrrrrqe=:",
":@eqrrrrrrrrrrrrr77rrrrrrrrrrrrrrrwe0rrrrrrrrrrrrrrrrrrrrrrrqe=:",
":#eqrrrrrrrrrrrrrrrrrrrrrrrrrrrrrrw90rrrrrrrrrrrrrrrrrrrrrrrqe=:",
":=eqrrrrrrrrrrrrrrrrrrrrrrrrrrrrrr4eqrrrrrrrrrrrrrrrrrrrrrrr,e;:",
":=eqrrrrrrrrrrrrrrrrrrrrrrrrrrrrrrwq2rrrrrrrrrrrrrrrrrrrrrrr2ee:",
":*e4rrrrrrrrrrrrrrrrrrrrrrrrrrrrrrrrrrrrrrrrrrrrrrrrrrrrrrrrree:",
":-e0rrrrrrrrrrrrrrrrrrrrrrrrrrrrrrrrrrrrrrrrrrrrrrrrrrrrrrrrree:",
":=e<rrrrr2rrrrrrrrrrrrrrrrrrrrrrrrrrrrrrrrrrrrrrrrrrrrwwwwwwree:",
":oe1001eeee900qqwwwwww5qqq00000000eeeeeeeeeeee100000eeeeeeeeeee:",
":%eeeeee;%eeeeeeeeeeeeeeeeeeeeeeeeeeeeeeeeeeeeeeeeeeeeo;;;;;ee+:",
":$-====-:::$-*&;;;;;;;#==*--------::::::::::::O------$::::::::::"
};
