/* XPM */
static char *_19bf1dcb02d4bd3a7dfbe021e9dfcafEH7pfFD17kAxBoYv[] = {
/* columns rows colors chars-per-pixel */
"64 64 49 1 ",
"  c #282828",
". c #2A2A2A",
"X c gray16",
"o c gray16",
"O c #2A2A2A",
"+ c gray16",
"@ c #2A2A2A",
"# c #2A2A2A",
"$ c gray16",
"% c gray15",
"& c gray16",
"* c #282828",
"= c #222222",
"- c gray16",
"; c None",
": c black",
"> c #FFCC4F",
", c #FFE8AF",
"< c #FFD56F",
"1 c #AFAFAF",
"2 c #FFF5DF",
"3 c #FFDF8F",
"4 c #FFBA0F",
"5 c gray63",
"6 c #5F5F5F",
"7 c #797979",
"8 c gray53",
"9 c #BCBCBC",
"0 c #FFBF1F",
"q c #515151",
"w c #444444",
"e c #FFE39F",
"r c #FFC83F",
"t c #E4E4E4",
"y c #FFF1CF",
"u c #FFC32F",
"i c #FFECBF",
"p c #6C6C6C",
"a c #D7D7D7",
"s c #FFDA7F",
"d c #373737",
"f c #FFFAEF",
"g c gray58",
"h c #FFD15F",
"j c gray79",
"k c #F1F1F1",
"l c #2A2A2A",
"z c white",
"x c #FFB600",
/* pixels */
"::::::::::::::::::::::::::::::::::::::::::::::::::::::::::::::::",
"::::::::::::::::::::::::::::::::::::::::::::::::::::::::::::::::",
"::::::::::::::::::::::::::::::::::::::::::::::::::::::::::::::::",
"::::::::::::::::::::::::::::::::::::::::::::::::::::::::::::::::",
"::::::::::::::::::::::::::::::::::::::::::::::::::::::::::::::::",
"::::::::::::::::::::::::::::::::::::::::::::::::::::::::::::::::",
"::::::::::::::::::::::::::::::::::::::::::::::::::::::::::::::::",
"::::::::::::::::::::::::::::::::::::::::::::::::::::::::::::::::",
"::::::::::::::::::::::::::::::::::::::::::::::::::::::::::::::::",
"::::::::::::::::::::::::::::::::::::::::::::::::::::::::::::::::",
"::::::::::::::::::::::::::::::::::::::::::::::::::::::::::::::::",
"::::::::::::::::::::::::::%+##---O--o+::::::::::::::::::::::::::",
"::::::::::::::::::::::::*;lllllllllllll@*:::::::::::::::::::::::",
"::::::::::::::::::::::=#ll68ggjjjjjj56lll&%:::::::::::::::::::::",
"::::::::::::::::::=+-$lll8kzzzzzzzzzzz97lll&%:::::::::::::::::::",
":::::::::::::::::%;llllpazzzzzzzzzzzzzzzt8ll;%::::::::::::::::::",
":::::::::::::::::&lw1tzzzzzzzzzzzzzzzzzzzztplO=:::::::::::::::::",
":::::::::::::::: lwkzzzzzzzzzzzzzzzzzzzzzzzz7l;%::::::::::::::::",
":::::::::::::::.llazzzzzzz,sssssei2zzzzzzzzzzpl;*:::::::::::::::",
"::::::::::::::=;lgzzzzzzzhxxxxxxxxxx0>yzzzzzzkqll%::::::::::::::",
"::::::::::::::olpzzzzzzfuxxxxxxxxxxxxxxyzzzzzzkpl;=:::::::::::::",
":::::::::::::*ldkzzzzzy4xxxxxxxxxxxxxxxxezzzzzzkwl#:::::::::::::",
"::::::::::::=$lgzzzzzzuxxxxxxxxxxxxxxxxxx3zzzzzz9lO:::::::::::::",
"::::::::::::oldkzzzzz<xxxxxxxxxxxxxxxxxxxxhfzzzzkll%::::::::::::",
":::::::::::=;l5zzzzz,xxxxxxxxxxxxxxxxxxxxxxufzzzzpl@::::::::::::",
":::::::::::.lwzzzzz2xxxxxxxxxxxxxxxxxxxxxxxxhzzzz1l;=:::::::::::",
":::::::::::&lgzzzzzhxxxxxxxxxxxxxxxxxxxxxxxx4fzzzzdl#:::::::::::",
":::::::::::-ljzzzzfxxxxxxxxxxxxxxxxxxxxxxxxxx3zzzzgl;:::::::::::",
":::::::::::-ljzzzzixxxxxxxxxxxxxxxxxxxxxxxxxxuzzzzkll*::::::::::",
":::::::::::llzzzzzsxxxxxxxxxxxxxxxxxxxxxxxxxxxzzzzzllX::::::::::",
":::::::::::llzzzzzhxxxxxxxxxxxxxxxxxxxxxxxxxxxzzzzzll:::::::::::",
":::::::::::llzzzzzrxxxxxxxxxxxxxxxxxxxxxxxxxxxzzzzzll:::::::::::",
":::::::::::Olazzzzrxxxxxxxxxxxxxxxxxxxxxxxxxx0zzzzzll:::::::::::",
":::::::::::-ljzzzzrxxxxxxxxxxxxxxxxxxxxxxxxxxhzzzzzll:::::::::::",
":::::::::::-l9zzzz<xxxxxxxxxxxxxxxxxxxxxxxxxx3zzzzzll:::::::::::",
":::::::::::ol8zzzzyxxxxxxxxxxxxxxxxxxxxxxxxxx2zzzzal$:::::::::::",
":::::::::::.l6zzzzzxxxxxxxxxxxxxxxxxxxxxxxxxxzzzzz7l@:::::::::::",
":::::::::::Xllzzzzzrxxxxxxxxxxxxxxxxxxxxxxxxrzzzztll*:::::::::::",
"::::::::::::$ljzzzzsxxxxxxxxxxxxxxxxxxxxxxxxezzzz7l$::::::::::::",
"::::::::::::@l7zzzzexxxxxxxxxxxxxxxxxxxxxxxhzzzzkdl ::::::::::::",
"::::::::::::*llkzzzz0xxxxxxxxxxxxxxxxxxxxxhzzzzzgl&:::::::::::::",
":::::::::::::$lgzzzzfuxxxxxxxxxxxxxxxxxxxufzzzz9l;=:::::::::::::",
":::::::::::::*ldazzzzzsxxxxxxxxxxxxxxxxx0fzzzztdl.::::::::::::::",
"::::::::::::::+lwazzzzzyhxxxxxxxxxxxxxxuyzzzzz6l&:::::::::::::::",
":::::::::::::::&lqkzzzzzzehr4xxxxxxxx0ezzzzzzgl-::::::::::::::::",
":::::::::::::::=Olqkzzzzzzzzzzfiiiiiyzzzzzzzjl;=::::::::::::::::",
"::::::::::::::::%;lqkzzzzzzzzzzzzzzzzzzzzzzkql*:::::::::::::::::",
":::::::::::::::::%$lqazzzzzzzzzzzzzzzzzzzzjdl@::::::::::::::::::",
"::::::::::::::::::=-ld1zzzzzzzzzzzzzzzzztpllo:::::::::::::::::::",
":::::::::::::::::::=&ll8zzzzzzzzzzzzzza5dlO*::::::::::::::::::::",
":::::::::::::::::::::+;lw5jkzzzzztj9gpll;+::::::::::::::::::::::",
"::::::::::::::::::::::=&lllllllllllllll-X:::::::::::::::::::::::",
"::::::::::::::::::::::::*@-;lllll$-&# X:::::::::::::::::::::::::",
"::::::::::::::::::::::::::::::::::::::::::::::::::::::::::::::::",
"::::::::::::::::::::::::::::::::::::::::::::::::::::::::::::::::",
"::::::::::::::::::::::::::::::::::::::::::::::::::::::::::::::::",
"::::::::::::::::::::::::::::::::::::::::::::::::::::::::::::::::",
"::::::::::::::::::::::::::::::::::::::::::::::::::::::::::::::::",
"::::::::::::::::::::::::::::::::::::::::::::::::::::::::::::::::",
"::::::::::::::::::::::::::::::::::::::::::::::::::::::::::::::::",
"::::::::::::::::::::::::::::::::::::::::::::::::::::::::::::::::",
"::::::::::::::::::::::::::::::::::::::::::::::::::::::::::::::::",
"::::::::::::::::::::::::::::::::::::::::::::::::::::::::::::::::",
"::::::::::::::::::::::::::::::::::::::::::::::::::::::::::::::::"
};
