/* XPM */
static char *_04c2d9595034dc8e0ad17a01e57312ajpA1SoynNjKsARFm[] = {
/* columns rows colors chars-per-pixel */
"64 64 42 1 ",
"  c gray16",
". c #3D3626",
"X c #CA9208",
"o c #222222",
"O c #886717",
"+ c #2A2A2A",
"@ c gray16",
"# c #856517",
"$ c #3F3825",
"% c #FFB500",
"& c #AF810E",
"* c #534522",
"= c gray16",
"- c #282828",
"; c gray16",
": c gray16",
"> c gray15",
", c #483E23",
"< c #2A2A2A",
"1 c #282828",
"2 c #2A2A2A",
"3 c gray16",
"4 c #2A2A2A",
"5 c #70581C",
"6 c None",
"7 c black",
"8 c #E4A405",
"9 c #373227",
"0 c #F1AD02",
"q c #BC8A0D",
"w c #876717",
"e c #514422",
"r c #D79B07",
"t c #A17812",
"y c #795E1A",
"u c #443B24",
"i c #5F4D1F",
"p c #AF810F",
"a c #947015",
"s c #C9930A",
"d c #2A2A2A",
"f c #FFB600",
/* pixels */
"7777777777777777777777777777777777777777777777777777777777777777",
"7777777777777777777777777777777777777777777777777777777777777777",
"7777777777777777777777777777777777777777777777777777777777777777",
"7777777777777777777777777777777777777777777777777777777777777777",
"7777777777777777777777777777777777777777777777777777777777777777",
"7777777777777777777777777777777777777777777777777777777777777777",
"7777777777777777777777777777777777777777777777777777777777777777",
"7777777777777777777777777777777777777777777777777777777777777777",
"7777777777777777777777777777777777777777777777777777777777777777",
"7777777777777777777777777777777777777777777777777777777777777777",
"7777777777777777777777777777777777777777777777777777777777777777",
"7777777777777777777777777777777777777777777777777777777777777777",
"7777777777777777777777777777777777777777777777777777777777777777",
"7777777777777777777777777777777777777777777777777777777777777777",
"7777777777777777777777777777777777777777777777777777777777777777",
"7777777777777777777777777777777777777777777777777777777777777777",
"7777777777777777777777777777777777777777777777777777777777777777",
"7777777777777777777777777777777777777777777777777777777777777777",
"7777777777777777777777777777777777777777777777777777777777777777",
"7777777777777777777777777777777777777777777777777777777777777777",
"7777777777777777777777777777777777777777777777777777777777777777",
"7777777777777777777777777777777777777777777777777777777777777777",
"7777777777777777777777777777777777777777777777777777777777777777",
"7777777777777777777777777777777777777777777777777777777777777777",
"7777777777777777777777777777%&5555OX7777777777777777777777777777",
"777777777777777777777777777#iddddddd.:77777777777777777777777777",
"77777777777777777777777777$dduyaawuddd4o777777777777777777777777",
"77777777777777777777777772d9qffffffrydd<777777777777777777777777",
"777777777777777777777777:ddwffffffffftdd177777777777777777777777",
"777777777777777777777777*du0ffffffffffid=77777777777777777777777",
"777777777777777777777777,dpfffffffffffad477777777777777777777777",
"777777777777777777777777idsfffffffffffrd677777777777777777777777",
"777777777777777777777777idsfffffffffffpd677777777777777777777777",
"777777777777777777777777,dsfffffffffffud277777777777777777777777",
"777777777777777777777777;dpfffffffffftd<777777777777777777777777",
"7777777777777777777777772dafffffffff8dd+777777777777777777777777",
"7777777777777777777777771defffffffffyd67777777777777777777777777",
"7777777777777777777777777@dpffffffftdd-7777777777777777777777777",
"7777777777777777777777777>6deatsssydd477777777777777777777777777",
"77777777777777777777777777><dddddddd 777777777777777777777777777",
"7777777777777777777777777777-43333;17777777777777777777777777777",
"7777777777777777777777777777777777777777777777777777777777777777",
"7777777777777777777777777777777777777777777777777777777777777777",
"7777777777777777777777777777777777777777777777777777777777777777",
"7777777777777777777777777777777777777777777777777777777777777777",
"7777777777777777777777777777777777777777777777777777777777777777",
"7777777777777777777777777777777777777777777777777777777777777777",
"7777777777777777777777777777777777777777777777777777777777777777",
"7777777777777777777777777777777777777777777777777777777777777777",
"7777777777777777777777777777777777777777777777777777777777777777",
"7777777777777777777777777777777777777777777777777777777777777777",
"7777777777777777777777777777777777777777777777777777777777777777",
"7777777777777777777777777777777777777777777777777777777777777777",
"7777777777777777777777777777777777777777777777777777777777777777",
"7777777777777777777777777777777777777777777777777777777777777777",
"7777777777777777777777777777777777777777777777777777777777777777",
"7777777777777777777777777777777777777777777777777777777777777777",
"7777777777777777777777777777777777777777777777777777777777777777",
"7777777777777777777777777777777777777777777777777777777777777777",
"7777777777777777777777777777777777777777777777777777777777777777",
"7777777777777777777777777777777777777777777777777777777777777777",
"7777777777777777777777777777777777777777777777777777777777777777",
"7777777777777777777777777777777777777777777777777777777777777777",
"7777777777777777777777777777777777777777777777777777777777777777"
};
